<svg xmlns="http://www.w3.org/2000/svg" viewBox="0 0 180 180" fill="none">
  <rect width="180" height="180" rx="40" fill="#1a6fbd"/>
  <path d="M90 14C61.5 14 41 34.5 41 59c0 15 5.5 27 8.5 38 3 10.5 4.5 20.5 3.5 31.5-.5 6.5-2.5 12.5-5 17.5-3 6-0.5 13.5 6.5 13.5 5.5 0 10-4 11.5-10.5 3.5-9.5 5.5-19.5 6.5-29.5 1-10 3.5-18 7-23.5 3.5-5 5.5-10.5 5.5-16.5 0-2.5-.5-5.5-.5-8V14H90z" fill="#fff"/>
  <path d="M90 14c28.5 0 49 20.5 49 45 0 15-5.5 27-8.5 38-3 10.5-4.5 20.5-3.5 31.5.5 6.5 2.5 12.5 5 17.5 3 6 0.5 13.5-6.5 13.5-5.5 0-10-4-11.5-10.5-3.5-9.5-5.5-19.5-6.5-29.5-1-10-3.5-18-7-23.5-3.5-5-5.5-10.5-5.5-16.5 0-2.5.5-5.5.5-8V14H90z" fill="#fff"/>
  <path d="M65 54c5.5-4.5 12-7 17.5-7s12 2.5 17.5 7" stroke="#fff" stroke-width="4" stroke-linecap="round" opacity="0.3"/>
</svg>
