<svg xmlns="http://www.w3.org/2000/svg" viewBox="0 0 32 32" fill="none">
  <rect width="32" height="32" rx="8" fill="#1a6fbd"/>
  <path d="M16 2.5C10.9 2.5 7.25 6.1 7.25 10.5c0 2.65.95 4.75 1.55 6.75.55 1.75.85 3.45.7 5.3-.1 1.1-.4 2.2-.85 3.1-.55 1.05-.05 2.3 1.15 2.3 1 0 1.8-.7 2.05-1.8.6-1.65.95-3.4 1.15-5.1.2-1.8.6-3.25 1.25-4.15.6-.85 1-1.8 1-2.85 0-.45-.05-.95-.05-1.4V2.5H16z" fill="#fff"/>
  <path d="M16 2.5c5.1 0 8.75 3.6 8.75 8 0 2.65-.95 4.75-1.55 6.75-.55 1.75-.85 3.45-.7 5.3.1 1.1.4 2.2.85 3.1.55 1.05.05 2.3-1.15 2.3-1 0-1.8-.7-2.05-1.8-.6-1.65-.95-3.4-1.15-5.1-.2-1.8-.6-3.25-1.25-4.15-.6-.85-1-1.8-1-2.85 0-.45.05-.95.05-1.4V2.5H16z" fill="#fff"/>
  <path d="M11.6 9.6c1-.85 2.15-1.25 3.25-1.25s2.25.4 3.25 1.25" stroke="#fff" stroke-width="1.3" stroke-linecap="round" opacity="0.3"/>
</svg>
